<svg width="28" height="24" viewBox="0 0 22 19" fill="none" xmlns="http://www.w3.org/2000/svg">
<path d="M22 9.5C22 4.25539 17.076 0 11 0C4.92397 0 0 4.25539 0 9.5C0 11.7172 0.878976 13.7554 2.35531 15.3757L0.392552 17.6867C-0.128006 18.1643 0.238945 19 0.964314 19H11.4694L11.4438 18.9915C17.3064 18.7868 22 14.6167 22 9.5Z" fill="#C6C9F8"/>
<path d="M5.52978 10.8048C6.25088 10.8048 6.83545 10.2206 6.83545 9.50001C6.83545 8.77941 6.25088 8.19525 5.52978 8.19525C4.80869 8.19525 4.22412 8.77941 4.22412 9.50001C4.22412 10.2206 4.80869 10.8048 5.52978 10.8048Z" fill="white"/>
<path d="M11 10.8048C11.7211 10.8048 12.3057 10.2206 12.3057 9.50001C12.3057 8.77941 11.7211 8.19525 11 8.19525C10.2789 8.19525 9.69434 8.77941 9.69434 9.50001C9.69434 10.2206 10.2789 10.8048 11 10.8048Z" fill="white"/>
<path d="M16.47 10.8048C17.1911 10.8048 17.7756 10.2206 17.7756 9.50001C17.7756 8.77941 17.1911 8.19525 16.47 8.19525C15.7489 8.19525 15.1643 8.77941 15.1643 9.50001C15.1643 10.2206 15.7489 10.8048 16.47 10.8048Z" fill="white"/>
</svg>
